<svg xmlns="http://www.w3.org/2000/svg" version="1.1" xmlns:xlink="http://www.w3.org/1999/xlink" width="100" height="100"><svg viewBox="0 0 100 100" fill="none" stroke="#313a60" stroke-width="2" stroke-linecap="round" stroke-linejoin="round" version="1.1" id="SvgjsSvg1035" sodipodi:docname="cosmofy-logo.svg" width="100" height="100" xml:space="preserve" inkscape:version="1.4 (86a8ad7, 2024-10-11)" xmlns:inkscape="http://www.inkscape.org/namespaces/inkscape" xmlns:sodipodi="http://sodipodi.sourceforge.net/DTD/sodipodi-0.dtd" xmlns="http://www.w3.org/2000/svg" xmlns:svg="http://www.w3.org/2000/svg" xmlns:rdf="http://www.w3.org/1999/02/22-rdf-syntax-ns#" xmlns:cc="http://creativecommons.org/ns#" xmlns:dc="http://purl.org/dc/elements/1.1/"><title id="SvgjsTitle1034">Cosmofy</title><defs id="SvgjsDefs1033"></defs><sodipodi:namedview id="SvgjsSodipodi:namedview1032" pagecolor="#ffffff" bordercolor="#cccccc" borderopacity="1" inkscape:showpageshadow="0" inkscape:pageopacity="1" inkscape:pagecheckerboard="0" inkscape:deskcolor="#d1d1d1" inkscape:zoom="5.4579805" inkscape:cx="44.613571" inkscape:cy="53.408033" inkscape:window-width="1920" inkscape:window-height="1001" inkscape:window-x="-9" inkscape:window-y="-9" inkscape:window-maximized="1" inkscape:current-layer="svg3"></sodipodi:namedview><metadata id="SvgjsMetadata1031"><rdf:rdf><cc:work rdf:about=""><dc:title>Cosmofy</dc:title></cc:work></rdf:rdf></metadata><g id="SvgjsG1030" transform="matrix(1.1014015,0,0,1.1014015,-5.070075,2.0601923)"><path d="M 50,22.339508 22.272727,36.203145 50,50.066781 77.727273,36.203145 Z" id="SvgjsPath1029" style="stroke-width:5.54545"></path><path d="M 22.272727,63.930417 50,77.794054 77.727273,63.930417" id="SvgjsPath1028" style="stroke-width:5.54545"></path><path d="M 22.272727,50.066781 50,63.930417 77.727273,50.066781" id="SvgjsPath1027" style="stroke-width:5.54545"></path><circle cx="50" cy="64.112053" fill="#00bcd4" stroke="none" id="SvgjsCircle1026" r="8.318182" style="stroke-width:5.54545"></circle><path d="M 22.272727,23.121956 50,9.25832 77.727273,23.121956" id="SvgjsPath1025" style="stroke-width:5.54545"></path><g style="fill:none" id="SvgjsG1024" transform="matrix(0.58382257,0,0,0.58382257,42.549023,57.432939)"><path d="m 17.976,2.60214 c 0.4634,-0.25959 0.766,-0.42785 1.0065,-0.52377 0.2265,-0.09032 0.3257,-0.08572 0.3933,-0.06817 0.0667,0.01734 0.1533,0.06038 0.3016,0.24683 0.1582,0.1989 0.3331,0.4905 0.6008,0.94044 l 1.1039,1.85503 c 0.2678,0.45007 0.4406,0.7426 0.5389,0.97465 0.0923,0.218 0.0853,0.30799 0.0694,0.36586 -0.0163,0.05875 -0.0578,0.14172 -0.2519,0.28702 -0.2056,0.15394 -0.5069,0.32397 -0.9704,0.58363 l -3.932,2.20252 C 16.3975,9.71185 16.1138,9.86953 15.889,9.95899 15.6784,10.0428 15.5925,10.0358 15.5381,10.0214 15.4837,10.007 15.4058,9.97072 15.2658,9.7942 15.1165,9.60582 14.9506,9.32925 14.6952,8.90007 L 13.5162,6.91881 C 13.2539,6.47796 13.0851,6.19212 12.989,5.96551 12.8987,5.7528 12.9059,5.66639 12.9206,5.61202 12.9354,5.55766 12.9729,5.47928 13.1589,5.33961 13.3569,5.1908 13.6479,5.02654 14.0984,4.77419 Z" fill="#1c274c" id="SvgjsPath1023"></path><path d="M 8.63783,8.4508 12.0871,6.51869 c 0.1268,0.26307 0.3036,0.56022 0.5037,0.89645 l 1.2142,2.04031 c 0.1832,0.30789 0.3467,0.58265 0.5043,0.80725 l -1.5469,0.8665 4.176,9.789 c 0.1692,0.3966 -0.0194,0.8535 -0.4212,1.0205 -0.4019,0.167 -0.8648,-0.0191 -1.034,-0.4157 L 12.0003,13.3585 8.51732,21.523 C 8.34812,21.9196 7.88519,22.1057 7.48335,21.9387 7.0815,21.7717 6.8929,21.3148 7.0621,20.9182 l 3.6973,-8.667 c -0.4024,0.2252 -0.6693,0.3719 -0.88288,0.4569 -0.2106,0.0838 -0.29653,0.0768 -0.3509,0.0624 C 9.47124,12.7561 9.39327,12.7198 9.25334,12.5433 9.104,12.3549 8.93814,12.0783 8.68275,11.6492 L 8.05569,10.5954 C 7.79336,10.1546 7.62457,9.86873 7.5284,9.64212 7.43814,9.42941 7.4453,9.343 7.46005,9.28863 7.47481,9.23427 7.51238,9.15589 7.6983,9.01622 7.89638,8.86741 8.18734,8.70315 8.63783,8.4508 Z" fill="#1c274c" id="SvgjsPath1022"></path><path d="m 6.62684,10.196 -3.3949,1.9016 c -0.46355,0.2597 -0.76486,0.4297 -0.97046,0.5837 -0.19407,0.1453 -0.23562,0.2282 -0.25184,0.287 -0.01599,0.0579 -0.02297,0.1479 0.06938,0.3659 0.0983,0.232 0.27105,0.5245 0.53888,0.9746 0.26774,0.4499 0.44258,0.7415 0.60078,0.9404 0.1483,0.1865 0.23496,0.2295 0.30167,0.2469 0.06753,0.0175 0.16672,0.0221 0.39323,-0.0682 0.24053,-0.0959 0.54314,-0.2642 1.00656,-0.5238 L 8.29723,13.0124 C 8.13943,12.7877 7.97589,12.5128 7.79249,12.2046 L 7.1303,11.0918 C 6.93035,10.7558 6.75363,10.4589 6.62684,10.196 Z" fill="#1c274c" id="SvgjsPath1021"></path></g></g></svg><style>@media (prefers-color-scheme: light) { :root { filter: none; } }
@media (prefers-color-scheme: dark) { :root { filter: invert(100%); } }
</style></svg>